<?xml version="1.0" encoding="iso-8859-1"?>
<!-- Generator: Adobe Illustrator 21.0.0, SVG Export Plug-In . SVG Version: 6.00 Build 0)  -->
<svg version="1.1" id="Capa_1" xmlns="http://www.w3.org/2000/svg" xmlns:xlink="http://www.w3.org/1999/xlink" x="0px" y="0px"
	 viewBox="0 0 512 512" style="enable-background:new 0 0 512 512;" xml:space="preserve">
<g>
	<path style="fill:#71C285;" d="M25.6,76.8h460.8c9.426,0,17.067,7.641,17.067,17.067v324.267c0,9.426-7.641,17.067-17.067,17.067
		H25.6c-9.426,0-17.067-7.641-17.067-17.067V93.867C8.533,84.441,16.174,76.8,25.6,76.8z"/>
	<path style="fill:#4C8056;" d="M486.4,443.733H25.6c-14.138,0-25.6-11.462-25.6-25.6V93.867c0-14.138,11.462-25.6,25.6-25.6h460.8
		c14.138,0,25.6,11.462,25.6,25.6v324.267C512,432.272,500.539,443.733,486.4,443.733z M25.6,85.333
		c-4.713,0-8.533,3.821-8.533,8.533v324.267c0,4.713,3.821,8.533,8.533,8.533h460.8c4.713,0,8.533-3.82,8.533-8.533V93.867
		c0-4.713-3.82-8.533-8.533-8.533H25.6z"/>
	<g>
		<path style="fill:#E6E7E8;" d="M256,409.6c-4.713,0-8.533-3.821-8.533-8.533V290.133c0-4.713,3.821-8.533,8.533-8.533
			c4.713,0,8.533,3.821,8.533,8.533v110.933C264.533,405.78,260.713,409.6,256,409.6z"/>
		<path style="fill:#E6E7E8;" d="M256,230.4c-4.713,0-8.533-3.821-8.533-8.533V110.933c0-4.713,3.821-8.533,8.533-8.533
			c4.713,0,8.533,3.821,8.533,8.533v110.933C264.533,226.579,260.713,230.4,256,230.4z"/>
		<path style="fill:#E6E7E8;" d="M469.333,409.6c-4.713,0-8.533-3.821-8.533-8.533V110.933c0-4.713,3.821-8.533,8.533-8.533
			c4.713,0,8.533,3.821,8.533,8.533v290.133C477.867,405.78,474.046,409.6,469.333,409.6z"/>
		<path style="fill:#E6E7E8;" d="M102.4,307.2c-4.713,0-8.533-3.82-8.533-8.533s3.821-8.533,8.533-8.533
			c18.851,0,34.133-15.282,34.133-34.133s-15.282-34.133-34.133-34.133c-4.713,0-8.533-3.821-8.533-8.533s3.821-8.533,8.533-8.533
			c28.277,0,51.2,22.923,51.2,51.2C153.6,284.277,130.677,307.2,102.4,307.2z"/>
	</g>
	<g>
		<circle style="fill:#4C8056;" cx="256" cy="256" r="59.733"/>
		<path style="fill:#4C8056;" d="M42.667,179.2h42.667c9.426,0,17.067,7.641,17.067,17.067v119.467
			c0,9.426-7.641,17.067-17.067,17.067H42.667"/>
		<path style="fill:#4C8056;" d="M469.333,179.2h-42.667c-9.426,0-17.067,7.641-17.067,17.067v119.467
			c0,9.426,7.641,17.067,17.067,17.067h42.667"/>
	</g>
	<g>
		<path style="fill:#E6E7E8;" d="M256,324.267c-37.703,0-68.267-30.564-68.267-68.267c0-37.703,30.564-68.267,68.267-68.267
			c37.703,0,68.267,30.564,68.267,68.267C324.224,293.685,293.685,324.224,256,324.267z M256,204.8c-28.277,0-51.2,22.923-51.2,51.2
			c0,28.277,22.923,51.2,51.2,51.2c28.277,0,51.2-22.923,51.2-51.2C307.172,227.735,284.265,204.828,256,204.8z"/>
		<path style="fill:#E6E7E8;" d="M85.333,341.333H42.667c-4.713,0-8.533-3.82-8.533-8.533s3.821-8.533,8.533-8.533h42.667
			c4.713,0,8.533-3.821,8.533-8.533V196.267c0-4.713-3.821-8.533-8.533-8.533H42.667c-4.713,0-8.533-3.82-8.533-8.533
			s3.821-8.533,8.533-8.533h42.667c14.138,0,25.6,11.462,25.6,25.6v119.467C110.933,329.872,99.472,341.333,85.333,341.333z"/>
		<path style="fill:#E6E7E8;" d="M469.333,341.333h-42.667c-14.138,0-25.6-11.461-25.6-25.6V196.267c0-14.138,11.462-25.6,25.6-25.6
			h42.667c4.713,0,8.533,3.821,8.533,8.533s-3.821,8.533-8.533,8.533h-42.667c-4.713,0-8.533,3.821-8.533,8.533v119.467
			c0,4.713,3.82,8.533,8.533,8.533h42.667c4.713,0,8.533,3.82,8.533,8.533S474.046,341.333,469.333,341.333z"/>
		<path style="fill:#E6E7E8;" d="M409.6,307.2c-28.277,0-51.2-22.923-51.2-51.2c0-28.277,22.923-51.2,51.2-51.2
			c4.713,0,8.533,3.82,8.533,8.533s-3.821,8.533-8.533,8.533c-18.851,0-34.133,15.282-34.133,34.133s15.282,34.133,34.133,34.133
			c4.713,0,8.533,3.82,8.533,8.533S414.313,307.2,409.6,307.2z"/>
		<path style="fill:#E6E7E8;" d="M469.333,409.6H42.667c-4.713,0-8.533-3.821-8.533-8.533V110.933c0-4.713,3.821-8.533,8.533-8.533
			h426.667c4.713,0,8.533,3.821,8.533,8.533s-3.821,8.533-8.533,8.533H51.2v273.067h418.133c4.713,0,8.533,3.82,8.533,8.533
			S474.046,409.6,469.333,409.6z"/>
		<path style="fill:#E6E7E8;" d="M256,264.533c-2.263-0.013-4.433-0.9-6.059-2.475c-0.753-0.83-1.359-1.782-1.792-2.816
			c-0.911-2.066-0.911-4.419,0-6.485c0.433-1.034,1.039-1.986,1.792-2.816c2.017-1.998,4.896-2.861,7.68-2.304
			c0.568,0.08,1.119,0.253,1.63,0.512c0.524,0.172,1.014,0.431,1.451,0.768c0.503,0.341,0.939,0.683,1.365,1.024
			c0.753,0.83,1.359,1.782,1.792,2.816c0.91,2.066,0.91,4.419,0,6.485c-0.433,1.034-1.039,1.986-1.792,2.816
			c-0.427,0.341-0.853,0.683-1.365,1.024c-0.436,0.337-0.927,0.596-1.451,0.768c-0.511,0.259-1.062,0.432-1.63,0.512
			C257.086,264.463,256.544,264.52,256,264.533z"/>
	</g>
</g>
<g>
</g>
<g>
</g>
<g>
</g>
<g>
</g>
<g>
</g>
<g>
</g>
<g>
</g>
<g>
</g>
<g>
</g>
<g>
</g>
<g>
</g>
<g>
</g>
<g>
</g>
<g>
</g>
<g>
</g>
</svg>
