<?xml version="1.0" encoding="iso-8859-1"?>
<!-- Generator: Adobe Illustrator 21.0.0, SVG Export Plug-In . SVG Version: 6.00 Build 0)  -->
<svg version="1.1" id="Capa_1" xmlns="http://www.w3.org/2000/svg" xmlns:xlink="http://www.w3.org/1999/xlink" x="0px" y="0px"
	 viewBox="0 0 512 512" style="enable-background:new 0 0 512 512;" xml:space="preserve">
<g>
	<g transform="translate(1 1)">
		<path style="fill:#2E7D32;" d="M24.6,75.8h460.8c9.426,0,17.067,7.641,17.067,17.067v324.267c0,9.426-7.641,17.067-17.067,17.067
			H24.6c-9.426,0-17.067-7.641-17.067-17.067V92.867C7.533,83.441,15.174,75.8,24.6,75.8z"/>
		<path style="fill:#4CAF50;" d="M24.6,75.8h435.2c9.426,0,17.067,7.641,17.067,17.067v324.267c0,9.426-7.641,17.067-17.067,17.067
			H24.6c-9.426,0-17.067-7.641-17.067-17.067V92.867C7.533,83.441,15.174,75.8,24.6,75.8z"/>
		<path style="fill:#9E9D24;" d="M59.928,109.933h390.144c9.426,0,17.067,7.641,17.067,17.067v256
			c0,9.426-7.641,17.067-17.067,17.067H59.928c-9.426,0-17.067-7.641-17.067-17.067V127
			C42.861,117.574,50.502,109.933,59.928,109.933z"/>
		<path style="fill:#CDDC39;" d="M59.928,109.933h365.739c9.426,0,17.067,7.641,17.067,17.067v256
			c0,9.426-7.641,17.067-17.067,17.067H59.928c-9.426,0-17.067-7.641-17.067-17.067V127
			C42.861,117.574,50.502,109.933,59.928,109.933z"/>
		<g>
			<circle style="fill:#CFD8DC;" cx="255" cy="255" r="59.733"/>
			<path style="fill:#CFD8DC;" d="M41.667,178.2h42.667c9.426,0,17.067,7.641,17.067,17.067v119.467
				c0,9.426-7.641,17.067-17.067,17.067H41.667"/>
		</g>
		<rect x="442.733" y="178.2" style="fill:#9E9E9E;" width="25.6" height="153.6"/>
		<g>
			<path style="fill:#CFD8DC;" d="M442.733,178.2v153.6h-17.067c-9.414-0.028-17.039-7.653-17.067-17.067V195.267
				c0.028-9.414,7.653-17.039,17.067-17.067H442.733z"/>
			<path style="fill:#CFD8DC;" d="M101.4,212.333v85.333c0,0,42.667-8.533,42.667-42.667S101.4,212.333,101.4,212.333z"/>
			<path style="fill:#CFD8DC;" d="M408.6,297.667v-85.333c0,0-42.667,8.533-42.667,42.667S408.6,297.667,408.6,297.667z"/>
		</g>
	</g>
	<g>
		<path d="M486.4,68.267H25.6c-14.138,0-25.6,11.462-25.6,25.6v324.267c0,14.138,11.462,25.6,25.6,25.6h460.8
			c14.138,0,25.6-11.462,25.6-25.6V93.867C512,79.728,500.539,68.267,486.4,68.267z M494.933,418.133
			c0,4.713-3.82,8.533-8.533,8.533H25.6c-4.713,0-8.533-3.82-8.533-8.533V93.867c0-4.713,3.821-8.533,8.533-8.533h460.8
			c4.713,0,8.533,3.821,8.533,8.533V418.133z"/>
		<path d="M469.333,102.4H42.667c-4.713,0-8.533,3.821-8.533,8.533v290.133c0,4.713,3.821,8.533,8.533,8.533h426.667
			c4.713,0,8.533-3.821,8.533-8.533V110.933C477.867,106.221,474.046,102.4,469.333,102.4z M256,230.4
			c4.713,0,8.533-3.821,8.533-8.533v-16.299c24.625,4.141,42.658,25.461,42.658,50.432c0,24.971-18.033,46.291-42.658,50.432
			v-16.299c0-4.713-3.821-8.533-8.533-8.533c-4.713,0-8.533,3.821-8.533,8.533v16.299c-24.625-4.141-42.659-25.461-42.659-50.432
			c0-24.971,18.033-46.29,42.659-50.432v16.299C247.467,226.579,251.287,230.4,256,230.4z M264.533,323.678
			c34.124-4.275,59.728-33.287,59.728-67.678s-25.604-63.403-59.728-67.678v-68.855H460.8v51.2h-34.133
			c-14.138,0-25.6,11.462-25.6,25.6v9.301c-24.625,4.141-42.658,25.461-42.658,50.432c0,24.971,18.033,46.291,42.658,50.432v9.301
			c0,14.139,11.462,25.6,25.6,25.6H460.8v51.2H264.533V323.678z M401.067,288.922c-15.055-3.832-25.592-17.387-25.592-32.922
			c0-15.534,10.538-29.09,25.592-32.922V288.922z M418.133,196.267c0-4.713,3.82-8.533,8.533-8.533H460.8v136.533h-34.133
			c-4.713,0-8.533-3.821-8.533-8.533V196.267z M110.933,223.078c15.055,3.832,25.592,17.387,25.592,32.922
			c0,15.535-10.537,29.09-25.592,32.922V223.078z M93.867,315.733c0,4.713-3.821,8.533-8.533,8.533H51.2V187.733h34.133
			c4.713,0,8.533,3.821,8.533,8.533V315.733z M51.2,341.333h34.133c14.138,0,25.6-11.461,25.6-25.6v-9.301
			c24.625-4.141,42.659-25.461,42.659-50.432c0-24.971-18.033-46.29-42.659-50.432v-9.301c0-14.138-11.462-25.6-25.6-25.6H51.2
			v-51.2h196.267v68.855c-34.124,4.275-59.728,33.287-59.728,67.678s25.604,63.403,59.728,67.678v68.855H51.2V341.333z"/>
		<path d="M248.149,259.243c0.433,1.034,1.039,1.986,1.792,2.816c1.625,1.575,3.796,2.461,6.059,2.475
			c0.541-0.014,1.081-0.071,1.613-0.171c0.568-0.08,1.119-0.253,1.63-0.512c0.524-0.172,1.014-0.431,1.451-0.768
			c0.503-0.341,0.939-0.683,1.365-1.024c0.753-0.83,1.359-1.782,1.792-2.816c0.91-2.066,0.91-4.419,0-6.485
			c-0.433-1.034-1.039-1.986-1.792-2.816c-0.427-0.341-0.853-0.683-1.365-1.024c-0.436-0.337-0.927-0.596-1.451-0.768
			c-0.511-0.259-1.062-0.432-1.63-0.512c-2.784-0.557-5.663,0.306-7.68,2.304c-0.753,0.83-1.359,1.782-1.792,2.816
			c-0.911,2.066-0.911,4.419,0,6.485H248.149z"/>
	</g>
</g>
<g>
</g>
<g>
</g>
<g>
</g>
<g>
</g>
<g>
</g>
<g>
</g>
<g>
</g>
<g>
</g>
<g>
</g>
<g>
</g>
<g>
</g>
<g>
</g>
<g>
</g>
<g>
</g>
<g>
</g>
</svg>
