<svg height="512pt" viewBox="0 -42 512.00064 512" width="512pt" xmlns="http://www.w3.org/2000/svg"><path d="m55.339844 295.429688c20.175781 31.058593 39.125 55.960937 56.234375 75.855468 39.148437 45.527344 110.710937 41.894532 144.960937-7.425781l78.582032-113.167969-125.179688-192.695312-135.339844 25.796875c-58.984375 11.242187-91.390625 75.152343-65.707031 129.425781 11.226563 23.71875 26.273437 51.152344 46.449219 82.210938zm0 0" fill="#fcf5af"/><path d="m209.9375 57.996094-87.394531 16.65625c-4.78125 36.597656-6.179688 103.542968 31.628906 165.1875 18.90625 30.824218 17.179687 69.996094-3.726563 99.5-9.273437 13.089844-20.464843 26.359375-33.542968 37.648437 40.023437 39.414063 106.886718 34.03125 139.632812-13.128906l78.582032-113.167969zm0 0" fill="#f4e74d"/><path d="m460.128906 427.53125c-13.578125 0-24.589844-11.007812-24.589844-24.589844v-253.398437h49.179688v253.398437c0 13.578125-11.007812 24.589844-24.589844 24.589844zm0 0" fill="#546370"/><path d="m435.539062 253.738281c19.949219-3.164062 36.101563-8.25 49.179688-14.4375v-89.757812h-49.179688zm0 0" fill="#3d4751"/><path d="m489.742188 163.742188-48.496094 31.5c-14.011719 9.105468-32.75 5.125-41.855469-8.890626l-22.429687-34.523437 99.242187-64.46875 22.429687 34.523437c9.105469 14.015626 5.125 32.753907-8.890624 41.859376zm0 0" fill="#6b7d8e"/><path d="m455.242188 150.070312-22.429688-34.523437-55.851562 36.28125 22.429687 34.523437c9.105469 14.015626 27.84375 17.996094 41.855469 8.890626l5.105468-3.3125c14.011719-9.105469 17.992188-27.84375 8.890626-41.859376zm0 0" fill="#8697a6"/><path d="m500.628906 45.921875-44.625 28.988281-27.210937-41.886718 44.625-28.988282c11.566406-7.515625 27.035156-4.230468 34.546875 7.339844 7.515625 11.566406 4.230468 27.035156-7.335938 34.546875zm0 0" fill="#6b7d8e"/><path d="m473.164062 93.402344-68.664062 44.605468-56.960938-87.679687 68.664063-44.605469c16.109375-10.464844 37.648437-5.890625 48.113281 10.21875l19.066406 29.351563c10.464844 16.105469 5.886719 37.648437-10.21875 48.109375zm0 0" fill="#8697a6"/><path d="m209.9375 57.996094s152.753906-91.417969 211.773438-.5625c59.019531 90.851562-86.59375 193.257812-86.59375 193.257812zm0 0" fill="#a5b1bd"/><path d="m319.554688 123.789062c-34.570313-53.210937-83.644532-82.671874-109.609376-65.804687-25.96875 16.871094-18.992187 73.683594 15.574219 126.894531 34.570313 53.210938 83.644531 82.671875 109.613281 65.804688 25.964844-16.871094 18.992188-73.683594-15.578124-126.894532zm0 0" fill="#6b7d8e"/><path d="m319.546875 123.800781c-29.574219-45.523437-69.757813-73.664062-97.011719-70.285156-14.164062 23.53125-4.796875 71.6875 24.777344 117.210937 29.570312 45.523438 69.761719 73.65625 97.015625 70.277344 14.167969-23.53125 4.789063-71.679687-24.78125-117.203125zm0 0" fill="#546370"/><path d="m281.375 79.199219c-25.152344 18.03125-31.917969 52.84375-14.882812 79.066406 17.03125 26.21875 51.589843 34.1875 78.289062 18.539063-5.1875-16.984376-13.667969-35.195313-25.238281-53.003907-11.570313-17.808593-24.761719-32.960937-38.167969-44.601562zm0 0" fill="#f9ee80"/><path d="m297.632812 139.066406c9.882813 15.214844 17.5 30.722656 22.746094 45.507813 8.378906-.71875 16.714844-3.265625 24.398438-7.769531-5.1875-16.984376-13.664063-35.191407-25.234375-53.003907-11.570313-17.808593-24.761719-32.960937-38.171875-44.601562-7.359375 5.277343-13.144532 11.992187-17.21875 19.503906 11.777344 10.992187 23.269531 24.640625 33.480468 40.363281zm0 0" fill="#eedb00"/></svg>